<svg width="24" height="25" viewBox="0 0 24 25" fill="none" xmlns="http://www.w3.org/2000/svg">
<g clip-path="url(#clip0_3286_6879)">
<path d="M11.3345 2.61987C11.7812 2.61987 12.2186 2.61987 12.6653 2.61987C12.898 2.64779 13.1399 2.67571 13.3726 2.71294C15.3456 3.00145 17.0953 3.7832 18.5843 5.10475C20.3991 6.70549 21.4973 8.71573 21.8789 11.1075C21.9254 11.3867 21.9533 11.6752 21.9906 11.9544C21.9906 12.4012 21.9906 12.8386 21.9906 13.2853C21.9627 13.5273 21.9347 13.7599 21.8975 14.0019C21.4973 16.6357 20.2688 18.8135 18.1842 20.4607C15.9692 22.2104 13.4285 22.8991 10.6365 22.5268C8.00267 22.1638 5.82492 20.9168 4.16833 18.8228C2.40937 16.5985 1.72999 14.0578 2.09295 11.2564C2.35353 9.27413 3.16321 7.53379 4.48476 6.03542C6.0855 4.22062 8.09574 3.11313 10.4875 2.73155C10.7761 2.69433 11.0553 2.6571 11.3345 2.61987ZM11.9952 20.7958C16.4996 20.7958 20.1572 17.1476 20.1758 12.6338C20.1944 8.12941 16.5183 4.45328 12.0045 4.44398C7.50011 4.44398 3.8426 8.09219 3.82398 12.6059C3.81468 17.1103 7.4815 20.7865 11.9952 20.7958Z" fill="white" fill-opacity="0.56"/>
<path d="M12.9074 14.7465C12.9074 15.6214 12.9074 16.5055 12.9074 17.3803C12.9074 17.9573 12.5723 18.3296 12.0512 18.3668C11.5765 18.404 11.1484 18.0318 11.1019 17.5571C11.0926 17.4827 11.0926 17.4175 11.0926 17.3431C11.0926 15.6027 11.0926 13.8717 11.0926 12.1314C11.0926 11.5823 11.3346 11.2379 11.7999 11.1262C12.3304 10.9959 12.8795 11.3775 12.8981 11.9173C12.926 12.6898 12.9074 13.4622 12.9167 14.244C12.9074 14.4115 12.9074 14.579 12.9074 14.7465Z" fill="white" fill-opacity="0.56"/>
<path d="M10.7948 8.07351C10.7948 7.40343 11.3439 6.85434 12.014 6.86364C12.684 6.87295 13.2238 7.41273 13.2145 8.09212C13.2145 8.75289 12.6654 9.29268 12.0047 9.29268C11.3346 9.29268 10.7855 8.74359 10.7948 8.07351Z" fill="white" fill-opacity="0.56"/>
</g>
<defs>
<clipPath id="clip0_3286_6879">
<rect width="20" height="20" fill="white" transform="translate(2 2.61987)"/>
</clipPath>
</defs>
</svg>
