<svg width="26" height="26" viewBox="0 0 26 26" fill="none" xmlns="http://www.w3.org/2000/svg">
<path d="M24.1806 11.4027H14.5972V1.81939C14.5972 1.39578 14.429 0.989521 14.1294 0.689984C13.8299 0.390447 13.4236 0.222168 13 0.222168C12.5764 0.222168 12.1701 0.390447 11.8706 0.689984C11.5711 0.989521 11.4028 1.39578 11.4028 1.81939V11.4027H1.81945C1.39584 11.4027 0.989582 11.571 0.690045 11.8705C0.390508 12.1701 0.222229 12.5763 0.222229 12.9999C0.222229 13.4236 0.390508 13.8298 0.690045 14.1294C0.989582 14.4289 1.39584 14.5972 1.81945 14.5972H11.4028V24.1805C11.4028 24.6041 11.5711 25.0104 11.8706 25.3099C12.1701 25.6094 12.5764 25.7777 13 25.7777C13.4236 25.7777 13.8299 25.6094 14.1294 25.3099C14.429 25.0104 14.5972 24.6041 14.5972 24.1805V14.5972H24.1806C24.6042 14.5972 25.0104 14.4289 25.31 14.1294C25.6095 13.8298 25.7778 13.4236 25.7778 12.9999C25.7778 12.5763 25.6095 12.1701 25.31 11.8705C25.0104 11.571 24.6042 11.4027 24.1806 11.4027Z" fill="white"/>
</svg>
