<svg width="17" height="16" viewBox="0 0 17 16" fill="none" xmlns="http://www.w3.org/2000/svg">
<path d="M16.2296 4.32325V3.51125C16.2296 2.21811 15.1813 1.1698 13.8882 1.1698H3.35272C2.05958 1.1698 1.01126 2.21811 1.01126 3.51125V4.32325H1.01256L1.01126 4.33644C0.929355 5.15379 1.29781 5.97041 1.99706 6.4015C3.99362 7.63246 6.06798 6.22668 6.06798 4.33644C6.06798 4.33193 6.06668 4.32776 6.06668 4.32325H6.09346L6.09216 4.33644C6.01025 5.15374 6.37865 5.97024 7.07779 6.40138C9.07429 7.63257 11.1488 6.22674 11.1488 4.33644C11.1488 4.33193 11.1475 4.32776 11.1475 4.32325H11.1744L11.1731 4.33644C11.0911 5.15379 11.4596 5.97041 12.1589 6.4015C14.1554 7.63246 16.2298 6.22668 16.2298 4.33644C16.2298 4.33193 16.2285 4.32776 16.2285 4.32325H16.2296Z" stroke="white" stroke-miterlimit="10" stroke-linecap="round" stroke-linejoin="round"/>
<path d="M14.8323 6.59814V12.9946C14.8323 14.0084 14.0104 14.8302 12.9967 14.8302H4.23265C3.21884 14.8302 2.39703 14.0083 2.39703 12.9946V6.61314" stroke="white" stroke-miterlimit="10" stroke-linecap="round" stroke-linejoin="round"/>
<path d="M10.7656 14.8302H6.46399V11.985C6.46399 10.7972 7.42695 9.83423 8.61479 9.83423C9.80262 9.83423 10.7656 10.7972 10.7656 11.985V14.8302Z" stroke="white" stroke-miterlimit="10" stroke-linecap="round" stroke-linejoin="round"/>
</svg>
