<svg width="23" height="17" viewBox="0 0 23 17" fill="none" xmlns="http://www.w3.org/2000/svg">
<g clip-path="url(#clip0_3286_6860)">
<path d="M15.54 6.92676C15.3888 6.92676 15.2411 6.98804 15.1346 7.09456C15.0282 7.20102 14.9674 7.34877 14.9674 7.49935C14.9674 7.65049 15.0282 7.79763 15.1346 7.9047C15.2411 8.01116 15.3888 8.07189 15.54 8.07189C15.6906 8.07189 15.8377 8.01116 15.9448 7.9047C16.0513 7.79763 16.1125 7.65044 16.1125 7.49935C16.1125 7.34877 16.0513 7.20108 15.9448 7.09456C15.8383 6.98804 15.6906 6.92676 15.54 6.92676Z" fill="white" fill-opacity="0.56"/>
<path d="M13.6148 6.92676C13.4642 6.92676 13.3166 6.98804 13.21 7.09456C13.1035 7.20102 13.0422 7.34877 13.0422 7.49935C13.0422 7.65049 13.1035 7.79763 13.21 7.9047C13.3165 8.01116 13.4642 8.07189 13.6148 8.07189C13.7654 8.07189 13.9131 8.01116 14.0196 7.9047C14.1261 7.79763 14.1874 7.65044 14.1874 7.49935C14.1874 7.34877 14.1261 7.20108 14.0196 7.09456C13.913 6.98804 13.7654 6.92676 13.6148 6.92676Z" fill="white" fill-opacity="0.56"/>
<path d="M11.6901 6.92676C11.539 6.92676 11.3918 6.98804 11.2853 7.09456C11.1782 7.20102 11.1175 7.34877 11.1175 7.49935C11.1175 7.65049 11.1782 7.79763 11.2853 7.9047C11.3918 8.01116 11.539 8.07189 11.6901 8.07189C11.8407 8.07189 11.9878 8.01116 12.0949 7.9047C12.2014 7.79763 12.2627 7.65044 12.2627 7.49935C12.2627 7.34877 12.2014 7.20108 12.0949 7.09456C11.9884 6.98804 11.8407 6.92676 11.6901 6.92676Z" fill="white" fill-opacity="0.56"/>
<path d="M15.5396 8.85229C15.389 8.85229 15.2412 8.91352 15.1347 9.02004C15.0283 9.12656 14.967 9.2743 14.967 9.42483C14.967 9.57542 15.0283 9.72316 15.1347 9.82963C15.2418 9.93615 15.3889 9.99743 15.5396 9.99743C15.6901 9.99743 15.8378 9.93615 15.9444 9.82963C16.0514 9.72316 16.1121 9.57542 16.1121 9.42483C16.1121 9.2743 16.0514 9.12656 15.9444 9.02004C15.8378 8.91352 15.6901 8.85229 15.5396 8.85229Z" fill="white" fill-opacity="0.56"/>
<path d="M13.6148 8.85229C13.4642 8.85229 13.3166 8.91352 13.21 9.02004C13.1035 9.12656 13.0422 9.2743 13.0422 9.42483C13.0422 9.57542 13.1035 9.72316 13.21 9.82963C13.3165 9.93615 13.4642 9.99743 13.6148 9.99743C13.7654 9.99743 13.9131 9.93615 14.0196 9.82963C14.1261 9.72316 14.1874 9.57542 14.1874 9.42483C14.1874 9.2743 14.1261 9.12656 14.0196 9.02004C13.913 8.91352 13.7654 8.85229 13.6148 8.85229Z" fill="white" fill-opacity="0.56"/>
<path d="M11.6901 8.85229C11.5395 8.85229 11.3918 8.91352 11.2853 9.02004C11.1788 9.12656 11.1175 9.2743 11.1175 9.42483C11.1175 9.57542 11.1788 9.72316 11.2853 9.82963C11.3918 9.93615 11.5395 9.99743 11.6901 9.99743C11.8407 9.99743 11.9878 9.93615 12.0949 9.82963C12.2014 9.72316 12.2627 9.57542 12.2627 9.42483C12.2627 9.2743 12.2014 9.12656 12.0949 9.02004C11.9884 8.91352 11.8407 8.85229 11.6901 8.85229Z" fill="white" fill-opacity="0.56"/>
<path d="M15.5396 10.7776C15.389 10.7776 15.2412 10.8389 15.1347 10.9453C15.0283 11.0519 14.967 11.1995 14.967 11.3501C14.967 11.5007 15.0283 11.6485 15.1347 11.755C15.2418 11.8614 15.3889 11.9227 15.5396 11.9227C15.6901 11.9227 15.8378 11.8614 15.9449 11.755C16.0514 11.6485 16.1121 11.5008 16.1121 11.3501C16.1121 11.1996 16.0514 11.0519 15.9449 10.9453C15.8384 10.8389 15.6907 10.7776 15.5396 10.7776Z" fill="white" fill-opacity="0.56"/>
<path d="M13.6148 10.7776C13.4642 10.7776 13.3166 10.8389 13.21 10.9453C13.1035 11.0519 13.0422 11.1995 13.0422 11.3501C13.0422 11.5007 13.1035 11.6485 13.21 11.755C13.3165 11.8614 13.4642 11.9227 13.6148 11.9227C13.7654 11.9227 13.9131 11.8614 14.0196 11.755C14.1261 11.6485 14.1874 11.5008 14.1874 11.3501C14.1874 11.1996 14.1261 11.0519 14.0196 10.9453C13.913 10.8389 13.7654 10.7776 13.6148 10.7776Z" fill="white" fill-opacity="0.56"/>
<path d="M11.6901 10.7776C11.539 10.7776 11.3918 10.8389 11.2853 10.9453C11.1782 11.0519 11.1175 11.1995 11.1175 11.3501C11.1175 11.5007 11.1782 11.6485 11.2853 11.755C11.3918 11.8614 11.5395 11.9227 11.6901 11.9227C11.8407 11.9227 11.9878 11.8614 12.0949 11.755C12.2014 11.6485 12.2627 11.5008 12.2627 11.3501C12.2627 11.1996 12.2014 11.0519 12.0949 10.9453C11.9884 10.8389 11.8407 10.7776 11.6901 10.7776Z" fill="white" fill-opacity="0.56"/>
<path d="M7.8396 8.85229C7.68852 8.85229 7.54133 8.91352 7.43431 9.02004C7.32784 9.12656 7.26712 9.2743 7.26712 9.42483C7.26712 9.57542 7.32784 9.72316 7.43431 9.82963C7.54138 9.93615 7.68852 9.99743 7.8396 9.99743C7.98963 9.99743 8.13738 9.93615 8.24445 9.82963C8.35097 9.72316 8.4122 9.57542 8.4122 9.42483C8.4122 9.2743 8.35097 9.12656 8.24445 9.02004C8.13738 8.91352 7.99024 8.85229 7.8396 8.85229Z" fill="white" fill-opacity="0.56"/>
<path d="M5.91446 8.85229C5.76393 8.85229 5.61618 8.91352 5.50972 9.02004C5.4032 9.12656 5.34192 9.2743 5.34192 9.42483C5.34192 9.57542 5.4032 9.72316 5.50972 9.82963C5.61613 9.93615 5.76393 9.99743 5.91446 9.99743C6.06504 9.99743 6.21273 9.93615 6.31931 9.82963C6.42577 9.72316 6.48705 9.57542 6.48705 9.42483C6.48705 9.2743 6.42577 9.12656 6.31931 9.02004C6.21279 8.91352 6.0651 8.85229 5.91446 8.85229Z" fill="white" fill-opacity="0.56"/>
<path d="M7.83917 10.7776C7.68864 10.7776 7.5409 10.8389 7.43438 10.9453C7.32791 11.0519 7.26663 11.1995 7.26663 11.3501C7.26663 11.5007 7.32791 11.6485 7.43438 11.755C7.54145 11.8614 7.68858 11.9227 7.83917 11.9227C7.98976 11.9227 8.13744 11.8614 8.24452 11.755C8.35104 11.6485 8.41171 11.5008 8.41171 11.3501C8.41171 11.1996 8.35104 11.0519 8.24452 10.9453C8.138 10.8389 7.99037 10.7776 7.83917 10.7776Z" fill="white" fill-opacity="0.56"/>
<path d="M5.91446 10.7776C5.76393 10.7776 5.61618 10.8389 5.50972 10.9453C5.4032 11.0519 5.34192 11.1995 5.34192 11.3501C5.34192 11.5007 5.4032 11.6485 5.50972 11.755C5.61613 11.8614 5.76393 11.9227 5.91446 11.9227C6.06504 11.9227 6.21273 11.8614 6.31931 11.755C6.42577 11.6485 6.48705 11.5008 6.48705 11.3501C6.48705 11.1996 6.42577 11.0519 6.31931 10.9453C6.21279 10.8389 6.0651 10.7776 5.91446 10.7776Z" fill="white" fill-opacity="0.56"/>
<path d="M18.4277 12.7027H18.0375V5.57424C18.0375 5.25803 17.7812 5.0017 17.4651 5.0017H14.1874V4.22147H17.3688C17.685 4.22147 17.9413 3.96509 17.9413 3.64899V1.14602C17.9413 0.829811 17.6849 0.573486 17.3688 0.573486H9.86083C9.54462 0.573486 9.28835 0.829867 9.28835 1.14602V3.64899C9.28835 3.96515 9.54467 4.22147 9.86083 4.22147H13.0423V5.0017H3.98926C3.67305 5.0017 3.41678 5.25808 3.41678 5.57424V12.7027H3.02664C2.71048 12.7027 2.4541 12.9591 2.4541 13.2753V16.1633C2.4541 16.4795 2.71048 16.7358 3.02658 16.7358H18.4276C18.7438 16.7358 19.0001 16.4794 19.0001 16.1633V13.2753C19.0002 12.9591 18.7438 12.7027 18.4277 12.7027ZM10.4334 1.71851H16.7962V3.0764H10.4334V1.71851ZM4.5618 6.14678H16.8925V12.7027H4.5618V6.14678ZM17.8551 13.8478V15.5908H3.59918V13.8478H17.8551Z" fill="white" fill-opacity="0.56"/>
</g>
<defs>
<clipPath id="clip0_3286_6860">
<rect width="23" height="16" fill="white" transform="translate(0 0.60376)"/>
</clipPath>
</defs>
</svg>
