<svg width="16" height="7" viewBox="0 0 16 7" fill="none" xmlns="http://www.w3.org/2000/svg">
<path d="M1.68489 2.35434C1.41555 2.69869 1.14622 3.04509 0.87441 3.38985C0.790333 3.4966 0.738609 3.61241 0.749737 3.75006C0.766429 3.95428 0.899344 4.11976 1.08708 4.17416C1.28429 4.23124 1.47573 4.16798 1.60905 3.99817C1.86973 3.66578 2.12918 3.33256 2.38924 2.99976C2.41644 2.96493 2.44447 2.93052 2.4591 2.91197C3.04207 3.19017 3.61598 3.46424 4.20452 3.74512C4.17773 3.83002 4.14332 3.94006 4.10787 4.0499C3.99927 4.3862 3.88593 4.72086 3.7829 5.05882C3.70892 5.30178 3.84863 5.55648 4.08685 5.63623C4.32713 5.71681 4.58431 5.59852 4.68034 5.36257C4.69332 5.33083 4.70362 5.29807 4.71413 5.26551C4.84025 4.87727 4.96616 4.48883 5.09248 4.1008C5.10402 4.06556 5.11844 4.03135 5.13369 3.99075C5.78735 4.15128 6.44534 4.24319 7.12681 4.27554C7.12681 4.31676 7.12681 4.35282 7.12681 4.38909C7.12702 4.82184 7.12434 5.25459 7.12826 5.68734C7.13052 5.92741 7.31042 6.12174 7.54431 6.1512C7.778 6.18067 7.99891 6.03415 8.06052 5.80315C8.07536 5.74772 8.07721 5.68796 8.07742 5.63005C8.07886 5.22141 8.07804 4.81257 8.07824 4.40393C8.07824 4.36663 8.07824 4.32912 8.07824 4.27781C8.7521 4.24031 9.41338 4.15582 10.0738 3.98972C10.0885 4.03032 10.1029 4.06741 10.1153 4.10512C10.248 4.51294 10.3784 4.92137 10.5134 5.32816C10.5841 5.54103 10.7652 5.66549 10.9824 5.66034C11.1837 5.6556 11.3713 5.52578 11.4158 5.32754C11.4393 5.22265 11.4337 5.09983 11.403 4.99638C11.2874 4.60856 11.1561 4.22547 11.0308 3.84053C11.0183 3.80199 11.0071 3.76284 11.0016 3.74491C11.5854 3.46651 12.1595 3.19285 12.7482 2.91218C12.7647 2.93279 12.7985 2.97503 12.8319 3.01789C13.0899 3.34802 13.3458 3.67959 13.6065 4.00765C13.7361 4.17086 13.9094 4.23165 14.1116 4.17478C14.3092 4.11914 14.4234 3.98066 14.4549 3.77891C14.4768 3.63879 14.4302 3.51597 14.3434 3.40531C14.07 3.05684 13.798 2.70755 13.5183 2.34961C13.5482 2.32446 13.5752 2.30056 13.6034 2.2783C14.1505 1.84679 14.6536 1.37077 15.0717 0.811697C15.1347 0.727414 15.1848 0.61902 15.1996 0.515984C15.2306 0.300228 15.0974 0.106934 14.8961 0.0313058C14.6958 -0.0439102 14.4782 0.0183233 14.3459 0.197399C14.0024 0.661677 13.596 1.06475 13.148 1.42599C11.9709 2.37557 10.6331 2.96864 9.14095 3.20913C7.76193 3.43127 6.39712 3.36554 5.05127 2.98266C4.23337 2.75 3.4674 2.40153 2.75666 1.93437C2.02841 1.45546 1.37867 0.890416 0.854422 0.188332C0.699662 -0.0189757 0.409101 -0.0587476 0.200764 0.0902418C-0.0151997 0.244589 -0.0658922 0.534118 0.092782 0.756675C0.361087 1.13296 0.677612 1.46721 1.01804 1.77796C1.23297 1.97394 1.45821 2.1592 1.68489 2.35434Z" fill="#285199"/>
</svg>
