<svg width="12" height="16" viewBox="0 0 12 16" fill="none" xmlns="http://www.w3.org/2000/svg">
<path d="M11.1664 5.71516L10.9144 13.5151C10.8929 14.1831 10.6177 14.8163 10.1471 15.2802C9.67655 15.7442 9.0477 16.0024 8.39401 16H3.60536C2.9521 16.0024 2.3236 15.7446 1.85311 15.2812C1.38262 14.8178 1.10712 14.1853 1.08501 13.5177L0.832975 5.71516C0.82746 5.54429 0.888555 5.37818 1.00282 5.25338C1.11708 5.12857 1.27516 5.05529 1.44227 5.04965C1.60938 5.04401 1.77183 5.10648 1.8939 5.22331C2.01596 5.34014 2.08763 5.50177 2.09315 5.67264L2.34518 13.4745C2.35773 13.8076 2.49602 14.1227 2.731 14.3537C2.96598 14.5847 3.27938 14.7137 3.60536 14.7134H8.39401C8.72041 14.7136 9.03417 14.5844 9.26922 14.3528C9.50427 14.1212 9.64227 13.8055 9.65419 13.4719L9.90622 5.67264C9.91174 5.50177 9.98341 5.34014 10.1055 5.22331C10.2275 5.10648 10.39 5.04401 10.5571 5.04965C10.7242 5.05529 10.8823 5.12857 10.9965 5.25338C11.1108 5.37818 11.1719 5.54429 11.1664 5.71516ZM12 3.11947C12 3.29034 11.9336 3.4542 11.8155 3.57503C11.6973 3.69585 11.537 3.76372 11.3699 3.76372H0.630087C0.462977 3.76372 0.302712 3.69585 0.184548 3.57503C0.0663838 3.4542 0 3.29034 0 3.11947C0 2.9486 0.0663838 2.78474 0.184548 2.66392C0.302712 2.5431 0.462977 2.47522 0.630087 2.47522H2.58336C2.783 2.47577 2.9757 2.40035 3.12396 2.26364C3.27222 2.12694 3.36543 1.93872 3.38546 1.73562C3.43195 1.25919 3.65026 0.817517 3.99783 0.496665C4.34541 0.175812 4.79736 -0.0012391 5.26563 6.52812e-06H6.73374C7.20201 -0.0012391 7.65396 0.175812 8.00154 0.496665C8.34911 0.817517 8.56742 1.25919 8.61391 1.73562C8.63394 1.93872 8.72715 2.12694 8.87541 2.26364C9.02367 2.40035 9.21637 2.47577 9.41602 2.47522H11.3693C11.5364 2.47522 11.6967 2.5431 11.8148 2.66392C11.933 2.78474 11.9994 2.9486 11.9994 3.11947H12ZM4.47929 2.47522H7.52134C7.43855 2.28178 7.38439 2.0768 7.36067 1.86705C7.34506 1.70824 7.27236 1.56102 7.15665 1.4539C7.04094 1.34677 6.89046 1.28738 6.73437 1.28722H5.26626C5.11017 1.28738 4.95969 1.34677 4.84398 1.4539C4.72827 1.56102 4.65557 1.70824 4.63996 1.86705C4.61603 2.07684 4.5623 2.28181 4.47929 2.47522ZM5.11378 12.2363V6.75047C5.11378 6.5796 5.0474 6.41574 4.92923 6.29492C4.81107 6.1741 4.65081 6.10622 4.4837 6.10622C4.31659 6.10622 4.15632 6.1741 4.03816 6.29492C3.91999 6.41574 3.85361 6.5796 3.85361 6.75047V12.2388C3.85361 12.4097 3.91999 12.5736 4.03816 12.6944C4.15632 12.8152 4.31659 12.8831 4.4837 12.8831C4.65081 12.8831 4.81107 12.8152 4.92923 12.6944C5.0474 12.5736 5.11378 12.4097 5.11378 12.2388V12.2363ZM8.14702 12.2363V6.75047C8.14702 6.5796 8.08064 6.41574 7.96247 6.29492C7.84431 6.1741 7.68404 6.10622 7.51693 6.10622C7.34982 6.10622 7.18956 6.1741 7.07139 6.29492C6.95323 6.41574 6.88685 6.5796 6.88685 6.75047V12.2388C6.88685 12.4097 6.95323 12.5736 7.07139 12.6944C7.18956 12.8152 7.34982 12.8831 7.51693 12.8831C7.68404 12.8831 7.84431 12.8152 7.96247 12.6944C8.08064 12.5736 8.14702 12.4097 8.14702 12.2388V12.2363Z" fill="white"/>
</svg>
