<svg width="19" height="20" viewBox="0 0 19 20" fill="none" xmlns="http://www.w3.org/2000/svg">
<path d="M8.93644 0.8396C6.35653 0.846546 3.87798 1.78857 2.01271 3.4711V1.7896C2.01271 1.53764 1.90669 1.29601 1.71796 1.11785C1.52923 0.939689 1.27326 0.8396 1.00636 0.8396C0.739454 0.8396 0.483483 0.939689 0.294755 1.11785C0.106026 1.29601 0 1.53764 0 1.7896V6.0646C0 6.31656 0.106026 6.55819 0.294755 6.73635C0.483483 6.91451 0.739454 7.0146 1.00636 7.0146H5.53496C5.80186 7.0146 6.05783 6.91451 6.24656 6.73635C6.43529 6.55819 6.54131 6.31656 6.54131 6.0646C6.54131 5.81264 6.43529 5.57101 6.24656 5.39285C6.05783 5.21469 5.80186 5.1146 5.53496 5.1146H3.1197C4.03721 4.19976 5.18123 3.51457 6.44886 3.12068C7.71649 2.72679 9.06796 2.63654 10.3817 2.85807C11.6954 3.07959 12.9303 3.60593 13.975 4.38974C15.0198 5.17355 15.8418 6.19024 16.3671 7.34836C16.8923 8.50648 17.1044 9.7697 16.9842 11.0244C16.8639 12.2791 16.4152 13.4858 15.6783 14.5362C14.9414 15.5865 13.9394 16.4474 12.7626 17.0415C11.5858 17.6356 10.271 17.9442 8.93644 17.9396C8.66954 17.9396 8.41357 18.0397 8.22484 18.2178C8.03611 18.396 7.93008 18.6376 7.93008 18.8896C7.93008 19.1416 8.03611 19.3832 8.22484 19.5614C8.41357 19.7395 8.66954 19.8396 8.93644 19.8396C11.6055 19.8396 14.1652 18.8387 16.0525 17.0571C17.9397 15.2755 19 12.8592 19 10.3396C19 7.82004 17.9397 5.40368 16.0525 3.62209C14.1652 1.84049 11.6055 0.8396 8.93644 0.8396ZM8.93644 6.5396C8.66954 6.5396 8.41357 6.63969 8.22484 6.81785C8.03611 6.99601 7.93008 7.23764 7.93008 7.4896V10.3396C7.93008 10.5916 8.03611 10.8332 8.22484 11.0114C8.41357 11.1895 8.66954 11.2896 8.93644 11.2896H10.9492C11.2161 11.2896 11.472 11.1895 11.6608 11.0114C11.8495 10.8332 11.9555 10.5916 11.9555 10.3396C11.9555 10.0876 11.8495 9.84601 11.6608 9.66785C11.472 9.48969 11.2161 9.3896 10.9492 9.3896H9.94279V7.4896C9.94279 7.23764 9.83677 6.99601 9.64804 6.81785C9.45931 6.63969 9.20334 6.5396 8.93644 6.5396Z" fill="white" fill-opacity="0.56"/>
</svg>
