<svg width="22" height="28" viewBox="0 0 22 28" fill="none" xmlns="http://www.w3.org/2000/svg">
<mask id="path-1-outside-1_1_12006" maskUnits="userSpaceOnUse" x="0" y="-0.0283203" width="22" height="28" fill="black">
<rect fill="white" y="-0.0283203" width="22" height="28"/>
<path d="M20.926 19.419C20.9103 19.2869 20.8892 19.156 20.8628 19.0256C20.8367 18.8954 20.8055 18.7667 20.769 18.6391C20.7324 18.5115 20.6911 18.3859 20.6447 18.2622C20.5983 18.1382 20.5472 18.0168 20.4912 17.8973C19.8961 16.605 18.8791 15.8265 17.6133 15.3745C16.3184 14.912 15.0407 14.5631 13.8266 13.8822C13.8271 13.2644 13.8447 12.6407 13.813 12.024C14.1532 11.5783 14.4424 11.1145 14.7642 10.6574C15.2846 9.91866 15.7221 9.66543 15.9412 8.70041C16.0044 8.42221 16.0606 8.12718 16.0353 7.84029C16.0001 7.43953 15.6855 7.1302 15.661 6.76085C15.5613 5.25626 16.0063 3.32511 14.6693 2.26138C13.5723 1.38836 11.046 0.905992 9.70158 0.978908C9.28063 1.01929 8.82688 1.06725 8.5299 1.42566C8.46192 1.50755 8.42513 1.60402 8.38461 1.70218L8.34755 1.79024C7.47712 2.25185 6.85169 2.69075 6.53178 3.71634C6.20813 4.75342 6.28731 5.9383 6.29158 7.01606C5.99059 7.46785 5.90182 7.86581 5.99726 8.41632C6.18894 9.52044 6.72959 9.86734 7.2953 10.7213C7.60215 11.1843 7.82236 11.6773 8.15987 12.1261C8.08256 12.6785 8.12948 13.2302 8.08522 13.7835C7.48192 14.1604 6.88981 14.5233 6.23532 14.7953C4.05805 15.7 1.82106 16.093 1.14605 18.8551C1.07486 19.1464 1.03408 19.4423 1.02341 19.743C0.990355 20.5518 0.967695 26.4498 1.13352 26.7574C1.18817 26.859 1.21829 26.8615 1.32013 26.8808C2.15377 27.0385 4.16335 26.9274 5.09483 26.9271C7.5275 26.926 9.96204 26.9706 12.3944 26.949C13.4531 26.9462 20.4426 27.0407 20.8977 26.8635C20.9566 26.6876 20.9758 26.5196 20.9838 26.334C21.0305 25.2775 20.9612 24.1925 20.9625 23.1324C20.9646 21.9237 21.0617 20.6149 20.926 19.419ZM15.6344 17.2753L12.7368 22.5757L12.3382 23.2836C12.2881 21.6346 12.21 20.008 12.0479 18.3657C12.6298 17.3723 13.5437 16.5633 14.4096 15.8464C14.6973 15.9911 15.3627 16.9814 15.6344 17.2753ZM14.1764 15.0525L12.3515 16.7823C11.9874 16.4609 11.6802 15.8846 11.3993 15.4777C12.009 15.1389 12.6157 14.7945 13.2193 14.4439C13.5672 14.5757 13.8788 14.8276 14.1764 15.0525ZM11.6845 17.3339C11.7008 17.4884 11.6666 17.5485 11.5835 17.6705C11.4054 17.7762 11.2361 17.763 11.0361 17.7661C10.7957 17.7585 10.347 17.7941 10.15 17.6424C10.0833 17.5911 10.026 17.5302 10.0111 17.4433C9.94898 17.0812 10.5789 16.2808 10.7786 15.9687C11.0855 16.2287 11.6408 16.9141 11.6845 17.3339ZM9.22971 14.0491L8.84101 13.7978L8.84181 12.8073C9.26516 13.0218 9.67946 13.2229 10.1396 13.3331C11.1836 13.5832 12.1553 13.3351 13.0473 12.7447L13.0727 12.77C13.1452 13.0173 13.1268 13.2975 13.1318 13.5546C12.4368 14.1354 11.5813 14.4408 10.8277 14.9252C10.2574 14.7095 9.74343 14.3834 9.22971 14.0491ZM7.52671 3.24435C7.88581 2.77769 8.31316 2.67448 8.85008 2.62232C8.93192 2.4333 9.0127 2.20726 9.13587 2.046C9.31022 1.81772 9.54589 1.78659 9.80609 1.74593C9.82448 1.74508 9.84287 1.74368 9.86127 1.74312C10.938 1.7162 13.6616 2.20586 14.44 3.01129C15.1915 3.78869 14.9103 6.0718 14.9223 7.15039C14.7026 6.19968 14.4 5.3303 13.8604 4.52402C13.7685 4.61965 13.6757 4.71304 13.5736 4.79633C12.9559 5.29861 12.1844 5.33759 11.4427 5.2414C10.4387 4.96965 9.78529 4.51813 9.06656 3.74186C8.62668 4.57562 8.04576 4.837 7.37474 5.41331L7.3257 5.45622C7.20306 5.88642 7.23718 6.42263 7.06176 6.82031C7.02924 6.73926 7.01645 6.67363 7.00605 6.58585C6.89221 5.61215 6.91114 4.0439 7.52671 3.24435ZM8.12787 10.8015C7.95752 10.4734 7.88421 10.09 7.67813 9.78349C7.49125 9.71226 7.35075 9.64411 7.22065 9.48117C6.82263 8.98394 6.65281 8.23964 6.7048 7.60247L6.81917 7.52927C7.09509 7.83608 7.20173 8.28395 7.50804 8.56636L7.63281 8.52205C7.76024 8.25506 7.75811 6.52892 7.84128 6.00673C8.29823 5.64047 8.77783 5.32161 9.19505 4.90262C9.59867 5.217 10.0324 5.51483 10.491 5.73302C11.6384 6.27933 12.4758 6.09591 13.6045 5.64103C13.6976 5.66066 13.7378 5.67917 13.8098 5.74928C14.3294 6.25633 14.2958 8.02566 14.2966 8.73294C14.315 8.71892 14.3337 8.70546 14.3518 8.69088C14.3792 8.669 14.4056 8.646 14.4328 8.62385C14.7687 8.34985 14.8727 7.79878 15.2574 7.61509L15.3398 7.66164C15.3944 7.91685 15.3531 8.18439 15.291 8.43483C15.1396 9.04704 14.8578 9.46294 14.3387 9.77199C13.9447 10.6414 13.5112 11.315 12.8229 11.9558L12.7501 12.0133C12.1183 12.5108 11.4416 12.8387 10.6285 12.6979C9.6152 12.5226 8.61947 11.7483 8.12787 10.8015ZM8.33742 14.4804C8.7829 14.4588 9.75943 15.2126 10.187 15.4855C10.0186 15.9948 9.70585 16.3883 9.39233 16.8067C9.08602 16.7467 7.80956 15.3753 7.5507 15.0724C7.79357 14.8279 8.0471 14.6529 8.33742 14.4804ZM7.43127 16.0571C8.00871 16.206 9.30462 17.9512 9.72744 18.4658C9.7213 19.9163 9.52643 21.4057 9.40566 22.8514L9.1348 22.4041C8.72584 21.6946 8.37661 20.9483 7.99005 20.225C7.46592 19.2449 6.90128 18.2818 6.43367 17.27C6.71813 16.8288 7.06976 16.4292 7.43127 16.0571ZM5.6027 26.1708C5.60376 25.2444 5.64429 24.3148 5.66535 23.3885C5.67734 23.2031 5.7192 22.942 5.66774 22.7617C5.61896 22.5903 5.4566 22.4291 5.29665 22.3744C5.20494 22.3432 5.18175 22.378 5.09964 22.4164C4.79972 22.8898 4.89063 25.4795 4.88023 26.1733C3.83705 26.1828 2.79306 26.1708 1.74988 26.1677L1.74508 21.8592C1.74455 21.0571 1.6923 20.2124 1.78187 19.4168C1.82239 19.0561 1.89864 18.7168 2.04953 18.3873C2.9077 16.5122 5.06311 16.0444 6.76771 15.4188C6.80957 15.4207 6.78531 15.4143 6.83303 15.4566C6.44007 16.0425 5.98632 16.582 5.58857 17.1654C5.80104 17.8685 6.27585 18.5858 6.61549 19.2339C7.435 20.8154 8.27477 22.385 9.13453 23.9426C9.52936 24.6684 9.85807 25.5055 10.3331 26.1708H5.6027ZM11.0884 25.5776C11.0292 25.6648 11.0367 25.6797 10.9359 25.7176C10.7546 25.5737 10.669 25.305 10.5733 25.093C10.8437 25.0882 11.1161 25.0975 11.3867 25.1L11.0884 25.5776ZM11.5912 24.3591L11.4496 24.3978C11.1684 24.3812 10.3843 24.4499 10.1889 24.2402C10.0543 23.4504 10.2188 22.5289 10.2686 21.7293C10.3427 20.6507 10.3939 19.5708 10.4216 18.4896L11.3222 18.537C11.4219 19.2684 11.7632 23.935 11.5912 24.3591ZM20.2683 22.5345L20.2614 26.203L17.3075 26.1988C17.2944 25.4915 17.296 23.0822 17.0953 22.5334C17.002 22.4313 16.9337 22.3859 16.7954 22.3738C16.7221 22.3674 16.6026 22.3814 16.5573 22.4434C16.388 22.6742 16.4749 23.2182 16.4883 23.4981C16.5363 24.3961 16.5427 25.2969 16.5578 26.196C14.9247 26.2047 13.2769 26.2369 11.6456 26.1724C12.1886 24.8883 16.4376 17.7641 16.3926 17.2049C16.3363 16.5094 15.1414 15.9732 15.0583 15.3702C16.1822 15.4934 18.3459 16.4093 19.151 17.2551C19.605 17.7319 19.9561 18.3275 20.127 18.9801C20.4112 20.0688 20.2739 21.4071 20.2683 22.5345Z"/>
</mask>
<path d="M20.926 19.419C20.9103 19.2869 20.8892 19.156 20.8628 19.0256C20.8367 18.8954 20.8055 18.7667 20.769 18.6391C20.7324 18.5115 20.6911 18.3859 20.6447 18.2622C20.5983 18.1382 20.5472 18.0168 20.4912 17.8973C19.8961 16.605 18.8791 15.8265 17.6133 15.3745C16.3184 14.912 15.0407 14.5631 13.8266 13.8822C13.8271 13.2644 13.8447 12.6407 13.813 12.024C14.1532 11.5783 14.4424 11.1145 14.7642 10.6574C15.2846 9.91866 15.7221 9.66543 15.9412 8.70041C16.0044 8.42221 16.0606 8.12718 16.0353 7.84029C16.0001 7.43953 15.6855 7.1302 15.661 6.76085C15.5613 5.25626 16.0063 3.32511 14.6693 2.26138C13.5723 1.38836 11.046 0.905992 9.70158 0.978908C9.28063 1.01929 8.82688 1.06725 8.5299 1.42566C8.46192 1.50755 8.42513 1.60402 8.38461 1.70218L8.34755 1.79024C7.47712 2.25185 6.85169 2.69075 6.53178 3.71634C6.20813 4.75342 6.28731 5.9383 6.29158 7.01606C5.99059 7.46785 5.90182 7.86581 5.99726 8.41632C6.18894 9.52044 6.72959 9.86734 7.2953 10.7213C7.60215 11.1843 7.82236 11.6773 8.15987 12.1261C8.08256 12.6785 8.12948 13.2302 8.08522 13.7835C7.48192 14.1604 6.88981 14.5233 6.23532 14.7953C4.05805 15.7 1.82106 16.093 1.14605 18.8551C1.07486 19.1464 1.03408 19.4423 1.02341 19.743C0.990355 20.5518 0.967695 26.4498 1.13352 26.7574C1.18817 26.859 1.21829 26.8615 1.32013 26.8808C2.15377 27.0385 4.16335 26.9274 5.09483 26.9271C7.5275 26.926 9.96204 26.9706 12.3944 26.949C13.4531 26.9462 20.4426 27.0407 20.8977 26.8635C20.9566 26.6876 20.9758 26.5196 20.9838 26.334C21.0305 25.2775 20.9612 24.1925 20.9625 23.1324C20.9646 21.9237 21.0617 20.6149 20.926 19.419ZM15.6344 17.2753L12.7368 22.5757L12.3382 23.2836C12.2881 21.6346 12.21 20.008 12.0479 18.3657C12.6298 17.3723 13.5437 16.5633 14.4096 15.8464C14.6973 15.9911 15.3627 16.9814 15.6344 17.2753ZM14.1764 15.0525L12.3515 16.7823C11.9874 16.4609 11.6802 15.8846 11.3993 15.4777C12.009 15.1389 12.6157 14.7945 13.2193 14.4439C13.5672 14.5757 13.8788 14.8276 14.1764 15.0525ZM11.6845 17.3339C11.7008 17.4884 11.6666 17.5485 11.5835 17.6705C11.4054 17.7762 11.2361 17.763 11.0361 17.7661C10.7957 17.7585 10.347 17.7941 10.15 17.6424C10.0833 17.5911 10.026 17.5302 10.0111 17.4433C9.94898 17.0812 10.5789 16.2808 10.7786 15.9687C11.0855 16.2287 11.6408 16.9141 11.6845 17.3339ZM9.22971 14.0491L8.84101 13.7978L8.84181 12.8073C9.26516 13.0218 9.67946 13.2229 10.1396 13.3331C11.1836 13.5832 12.1553 13.3351 13.0473 12.7447L13.0727 12.77C13.1452 13.0173 13.1268 13.2975 13.1318 13.5546C12.4368 14.1354 11.5813 14.4408 10.8277 14.9252C10.2574 14.7095 9.74343 14.3834 9.22971 14.0491ZM7.52671 3.24435C7.88581 2.77769 8.31316 2.67448 8.85008 2.62232C8.93192 2.4333 9.0127 2.20726 9.13587 2.046C9.31022 1.81772 9.54589 1.78659 9.80609 1.74593C9.82448 1.74508 9.84287 1.74368 9.86127 1.74312C10.938 1.7162 13.6616 2.20586 14.44 3.01129C15.1915 3.78869 14.9103 6.0718 14.9223 7.15039C14.7026 6.19968 14.4 5.3303 13.8604 4.52402C13.7685 4.61965 13.6757 4.71304 13.5736 4.79633C12.9559 5.29861 12.1844 5.33759 11.4427 5.2414C10.4387 4.96965 9.78529 4.51813 9.06656 3.74186C8.62668 4.57562 8.04576 4.837 7.37474 5.41331L7.3257 5.45622C7.20306 5.88642 7.23718 6.42263 7.06176 6.82031C7.02924 6.73926 7.01645 6.67363 7.00605 6.58585C6.89221 5.61215 6.91114 4.0439 7.52671 3.24435ZM8.12787 10.8015C7.95752 10.4734 7.88421 10.09 7.67813 9.78349C7.49125 9.71226 7.35075 9.64411 7.22065 9.48117C6.82263 8.98394 6.65281 8.23964 6.7048 7.60247L6.81917 7.52927C7.09509 7.83608 7.20173 8.28395 7.50804 8.56636L7.63281 8.52205C7.76024 8.25506 7.75811 6.52892 7.84128 6.00673C8.29823 5.64047 8.77783 5.32161 9.19505 4.90262C9.59867 5.217 10.0324 5.51483 10.491 5.73302C11.6384 6.27933 12.4758 6.09591 13.6045 5.64103C13.6976 5.66066 13.7378 5.67917 13.8098 5.74928C14.3294 6.25633 14.2958 8.02566 14.2966 8.73294C14.315 8.71892 14.3337 8.70546 14.3518 8.69088C14.3792 8.669 14.4056 8.646 14.4328 8.62385C14.7687 8.34985 14.8727 7.79878 15.2574 7.61509L15.3398 7.66164C15.3944 7.91685 15.3531 8.18439 15.291 8.43483C15.1396 9.04704 14.8578 9.46294 14.3387 9.77199C13.9447 10.6414 13.5112 11.315 12.8229 11.9558L12.7501 12.0133C12.1183 12.5108 11.4416 12.8387 10.6285 12.6979C9.6152 12.5226 8.61947 11.7483 8.12787 10.8015ZM8.33742 14.4804C8.7829 14.4588 9.75943 15.2126 10.187 15.4855C10.0186 15.9948 9.70585 16.3883 9.39233 16.8067C9.08602 16.7467 7.80956 15.3753 7.5507 15.0724C7.79357 14.8279 8.0471 14.6529 8.33742 14.4804ZM7.43127 16.0571C8.00871 16.206 9.30462 17.9512 9.72744 18.4658C9.7213 19.9163 9.52643 21.4057 9.40566 22.8514L9.1348 22.4041C8.72584 21.6946 8.37661 20.9483 7.99005 20.225C7.46592 19.2449 6.90128 18.2818 6.43367 17.27C6.71813 16.8288 7.06976 16.4292 7.43127 16.0571ZM5.6027 26.1708C5.60376 25.2444 5.64429 24.3148 5.66535 23.3885C5.67734 23.2031 5.7192 22.942 5.66774 22.7617C5.61896 22.5903 5.4566 22.4291 5.29665 22.3744C5.20494 22.3432 5.18175 22.378 5.09964 22.4164C4.79972 22.8898 4.89063 25.4795 4.88023 26.1733C3.83705 26.1828 2.79306 26.1708 1.74988 26.1677L1.74508 21.8592C1.74455 21.0571 1.6923 20.2124 1.78187 19.4168C1.82239 19.0561 1.89864 18.7168 2.04953 18.3873C2.9077 16.5122 5.06311 16.0444 6.76771 15.4188C6.80957 15.4207 6.78531 15.4143 6.83303 15.4566C6.44007 16.0425 5.98632 16.582 5.58857 17.1654C5.80104 17.8685 6.27585 18.5858 6.61549 19.2339C7.435 20.8154 8.27477 22.385 9.13453 23.9426C9.52936 24.6684 9.85807 25.5055 10.3331 26.1708H5.6027ZM11.0884 25.5776C11.0292 25.6648 11.0367 25.6797 10.9359 25.7176C10.7546 25.5737 10.669 25.305 10.5733 25.093C10.8437 25.0882 11.1161 25.0975 11.3867 25.1L11.0884 25.5776ZM11.5912 24.3591L11.4496 24.3978C11.1684 24.3812 10.3843 24.4499 10.1889 24.2402C10.0543 23.4504 10.2188 22.5289 10.2686 21.7293C10.3427 20.6507 10.3939 19.5708 10.4216 18.4896L11.3222 18.537C11.4219 19.2684 11.7632 23.935 11.5912 24.3591ZM20.2683 22.5345L20.2614 26.203L17.3075 26.1988C17.2944 25.4915 17.296 23.0822 17.0953 22.5334C17.002 22.4313 16.9337 22.3859 16.7954 22.3738C16.7221 22.3674 16.6026 22.3814 16.5573 22.4434C16.388 22.6742 16.4749 23.2182 16.4883 23.4981C16.5363 24.3961 16.5427 25.2969 16.5578 26.196C14.9247 26.2047 13.2769 26.2369 11.6456 26.1724C12.1886 24.8883 16.4376 17.7641 16.3926 17.2049C16.3363 16.5094 15.1414 15.9732 15.0583 15.3702C16.1822 15.4934 18.3459 16.4093 19.151 17.2551C19.605 17.7319 19.9561 18.3275 20.127 18.9801C20.4112 20.0688 20.2739 21.4071 20.2683 22.5345Z" fill="white" fill-opacity="0.56"/>
<path d="M20.926 19.419C20.9103 19.2869 20.8892 19.156 20.8628 19.0256C20.8367 18.8954 20.8055 18.7667 20.769 18.6391C20.7324 18.5115 20.6911 18.3859 20.6447 18.2622C20.5983 18.1382 20.5472 18.0168 20.4912 17.8973C19.8961 16.605 18.8791 15.8265 17.6133 15.3745C16.3184 14.912 15.0407 14.5631 13.8266 13.8822C13.8271 13.2644 13.8447 12.6407 13.813 12.024C14.1532 11.5783 14.4424 11.1145 14.7642 10.6574C15.2846 9.91866 15.7221 9.66543 15.9412 8.70041C16.0044 8.42221 16.0606 8.12718 16.0353 7.84029C16.0001 7.43953 15.6855 7.1302 15.661 6.76085C15.5613 5.25626 16.0063 3.32511 14.6693 2.26138C13.5723 1.38836 11.046 0.905992 9.70158 0.978908C9.28063 1.01929 8.82688 1.06725 8.5299 1.42566C8.46192 1.50755 8.42513 1.60402 8.38461 1.70218L8.34755 1.79024C7.47712 2.25185 6.85169 2.69075 6.53178 3.71634C6.20813 4.75342 6.28731 5.9383 6.29158 7.01606C5.99059 7.46785 5.90182 7.86581 5.99726 8.41632C6.18894 9.52044 6.72959 9.86734 7.2953 10.7213C7.60215 11.1843 7.82236 11.6773 8.15987 12.1261C8.08256 12.6785 8.12948 13.2302 8.08522 13.7835C7.48192 14.1604 6.88981 14.5233 6.23532 14.7953C4.05805 15.7 1.82106 16.093 1.14605 18.8551C1.07486 19.1464 1.03408 19.4423 1.02341 19.743C0.990355 20.5518 0.967695 26.4498 1.13352 26.7574C1.18817 26.859 1.21829 26.8615 1.32013 26.8808C2.15377 27.0385 4.16335 26.9274 5.09483 26.9271C7.5275 26.926 9.96204 26.9706 12.3944 26.949C13.4531 26.9462 20.4426 27.0407 20.8977 26.8635C20.9566 26.6876 20.9758 26.5196 20.9838 26.334C21.0305 25.2775 20.9612 24.1925 20.9625 23.1324C20.9646 21.9237 21.0617 20.6149 20.926 19.419ZM15.6344 17.2753L12.7368 22.5757L12.3382 23.2836C12.2881 21.6346 12.21 20.008 12.0479 18.3657C12.6298 17.3723 13.5437 16.5633 14.4096 15.8464C14.6973 15.9911 15.3627 16.9814 15.6344 17.2753ZM14.1764 15.0525L12.3515 16.7823C11.9874 16.4609 11.6802 15.8846 11.3993 15.4777C12.009 15.1389 12.6157 14.7945 13.2193 14.4439C13.5672 14.5757 13.8788 14.8276 14.1764 15.0525ZM11.6845 17.3339C11.7008 17.4884 11.6666 17.5485 11.5835 17.6705C11.4054 17.7762 11.2361 17.763 11.0361 17.7661C10.7957 17.7585 10.347 17.7941 10.15 17.6424C10.0833 17.5911 10.026 17.5302 10.0111 17.4433C9.94898 17.0812 10.5789 16.2808 10.7786 15.9687C11.0855 16.2287 11.6408 16.9141 11.6845 17.3339ZM9.22971 14.0491L8.84101 13.7978L8.84181 12.8073C9.26516 13.0218 9.67946 13.2229 10.1396 13.3331C11.1836 13.5832 12.1553 13.3351 13.0473 12.7447L13.0727 12.77C13.1452 13.0173 13.1268 13.2975 13.1318 13.5546C12.4368 14.1354 11.5813 14.4408 10.8277 14.9252C10.2574 14.7095 9.74343 14.3834 9.22971 14.0491ZM7.52671 3.24435C7.88581 2.77769 8.31316 2.67448 8.85008 2.62232C8.93192 2.4333 9.0127 2.20726 9.13587 2.046C9.31022 1.81772 9.54589 1.78659 9.80609 1.74593C9.82448 1.74508 9.84287 1.74368 9.86127 1.74312C10.938 1.7162 13.6616 2.20586 14.44 3.01129C15.1915 3.78869 14.9103 6.0718 14.9223 7.15039C14.7026 6.19968 14.4 5.3303 13.8604 4.52402C13.7685 4.61965 13.6757 4.71304 13.5736 4.79633C12.9559 5.29861 12.1844 5.33759 11.4427 5.2414C10.4387 4.96965 9.78529 4.51813 9.06656 3.74186C8.62668 4.57562 8.04576 4.837 7.37474 5.41331L7.3257 5.45622C7.20306 5.88642 7.23718 6.42263 7.06176 6.82031C7.02924 6.73926 7.01645 6.67363 7.00605 6.58585C6.89221 5.61215 6.91114 4.0439 7.52671 3.24435ZM8.12787 10.8015C7.95752 10.4734 7.88421 10.09 7.67813 9.78349C7.49125 9.71226 7.35075 9.64411 7.22065 9.48117C6.82263 8.98394 6.65281 8.23964 6.7048 7.60247L6.81917 7.52927C7.09509 7.83608 7.20173 8.28395 7.50804 8.56636L7.63281 8.52205C7.76024 8.25506 7.75811 6.52892 7.84128 6.00673C8.29823 5.64047 8.77783 5.32161 9.19505 4.90262C9.59867 5.217 10.0324 5.51483 10.491 5.73302C11.6384 6.27933 12.4758 6.09591 13.6045 5.64103C13.6976 5.66066 13.7378 5.67917 13.8098 5.74928C14.3294 6.25633 14.2958 8.02566 14.2966 8.73294C14.315 8.71892 14.3337 8.70546 14.3518 8.69088C14.3792 8.669 14.4056 8.646 14.4328 8.62385C14.7687 8.34985 14.8727 7.79878 15.2574 7.61509L15.3398 7.66164C15.3944 7.91685 15.3531 8.18439 15.291 8.43483C15.1396 9.04704 14.8578 9.46294 14.3387 9.77199C13.9447 10.6414 13.5112 11.315 12.8229 11.9558L12.7501 12.0133C12.1183 12.5108 11.4416 12.8387 10.6285 12.6979C9.6152 12.5226 8.61947 11.7483 8.12787 10.8015ZM8.33742 14.4804C8.7829 14.4588 9.75943 15.2126 10.187 15.4855C10.0186 15.9948 9.70585 16.3883 9.39233 16.8067C9.08602 16.7467 7.80956 15.3753 7.5507 15.0724C7.79357 14.8279 8.0471 14.6529 8.33742 14.4804ZM7.43127 16.0571C8.00871 16.206 9.30462 17.9512 9.72744 18.4658C9.7213 19.9163 9.52643 21.4057 9.40566 22.8514L9.1348 22.4041C8.72584 21.6946 8.37661 20.9483 7.99005 20.225C7.46592 19.2449 6.90128 18.2818 6.43367 17.27C6.71813 16.8288 7.06976 16.4292 7.43127 16.0571ZM5.6027 26.1708C5.60376 25.2444 5.64429 24.3148 5.66535 23.3885C5.67734 23.2031 5.7192 22.942 5.66774 22.7617C5.61896 22.5903 5.4566 22.4291 5.29665 22.3744C5.20494 22.3432 5.18175 22.378 5.09964 22.4164C4.79972 22.8898 4.89063 25.4795 4.88023 26.1733C3.83705 26.1828 2.79306 26.1708 1.74988 26.1677L1.74508 21.8592C1.74455 21.0571 1.6923 20.2124 1.78187 19.4168C1.82239 19.0561 1.89864 18.7168 2.04953 18.3873C2.9077 16.5122 5.06311 16.0444 6.76771 15.4188C6.80957 15.4207 6.78531 15.4143 6.83303 15.4566C6.44007 16.0425 5.98632 16.582 5.58857 17.1654C5.80104 17.8685 6.27585 18.5858 6.61549 19.2339C7.435 20.8154 8.27477 22.385 9.13453 23.9426C9.52936 24.6684 9.85807 25.5055 10.3331 26.1708H5.6027ZM11.0884 25.5776C11.0292 25.6648 11.0367 25.6797 10.9359 25.7176C10.7546 25.5737 10.669 25.305 10.5733 25.093C10.8437 25.0882 11.1161 25.0975 11.3867 25.1L11.0884 25.5776ZM11.5912 24.3591L11.4496 24.3978C11.1684 24.3812 10.3843 24.4499 10.1889 24.2402C10.0543 23.4504 10.2188 22.5289 10.2686 21.7293C10.3427 20.6507 10.3939 19.5708 10.4216 18.4896L11.3222 18.537C11.4219 19.2684 11.7632 23.935 11.5912 24.3591ZM20.2683 22.5345L20.2614 26.203L17.3075 26.1988C17.2944 25.4915 17.296 23.0822 17.0953 22.5334C17.002 22.4313 16.9337 22.3859 16.7954 22.3738C16.7221 22.3674 16.6026 22.3814 16.5573 22.4434C16.388 22.6742 16.4749 23.2182 16.4883 23.4981C16.5363 24.3961 16.5427 25.2969 16.5578 26.196C14.9247 26.2047 13.2769 26.2369 11.6456 26.1724C12.1886 24.8883 16.4376 17.7641 16.3926 17.2049C16.3363 16.5094 15.1414 15.9732 15.0583 15.3702C16.1822 15.4934 18.3459 16.4093 19.151 17.2551C19.605 17.7319 19.9561 18.3275 20.127 18.9801C20.4112 20.0688 20.2739 21.4071 20.2683 22.5345Z" stroke="white" stroke-opacity="0.56" stroke-width="0.2" mask="url(#path-1-outside-1_1_12006)"/>
</svg>
