<svg width="18" height="17" viewBox="0 0 18 17" fill="none" xmlns="http://www.w3.org/2000/svg">
<path d="M10.7352 12.8282C10.3552 12.8291 9.97886 12.755 9.62765 12.61C9.27644 12.465 8.9573 12.2521 8.68854 11.9834C8.41979 11.7148 8.2067 11.3956 8.06152 11.0444C7.91634 10.6931 7.84192 10.3166 7.84253 9.93648C7.84262 9.46059 7.96001 8.99207 8.18429 8.5724C8.40857 8.15273 8.73284 7.79488 9.12836 7.53053C9.52388 7.26618 9.97846 7.1035 10.4518 7.05689C10.9252 7.01027 11.4027 7.08117 11.8422 7.2633C12.2816 7.44542 12.6694 7.73316 12.9712 8.10103C13.2729 8.46889 13.4794 8.90553 13.5722 9.37227C13.665 9.83901 13.6413 10.3215 13.5033 10.7769C13.3653 11.2323 13.1171 11.6466 12.7808 11.9832C12.5122 12.2517 12.1932 12.4646 11.8421 12.6096C11.4911 12.7546 11.1149 12.8289 10.7352 12.8282ZM10.7352 8.20121C10.2909 8.20121 9.84539 8.37022 9.50753 8.70825C9.18008 9.03701 8.99958 9.47227 8.99958 9.93648C8.99958 10.4007 9.18008 10.836 9.50753 11.1647C9.83594 11.4764 10.273 11.6476 10.7257 11.6416C11.1784 11.6356 11.6108 11.4531 11.9309 11.1328C12.251 10.8126 12.4335 10.3799 12.4394 9.92702C12.4454 9.47413 12.2744 9.03682 11.9628 8.70825C11.8016 8.54708 11.6101 8.41934 11.3995 8.33233C11.1888 8.24532 10.9631 8.20076 10.7352 8.20121Z" fill="#AACAFE"/>
<path d="M10.7352 12.8282C10.3552 12.8291 9.97886 12.755 9.62765 12.61C9.27644 12.465 8.9573 12.2521 8.68854 11.9834C8.41979 11.7148 8.2067 11.3956 8.06152 11.0444C7.91634 10.6931 7.84192 10.3166 7.84253 9.93648C7.84262 9.46059 7.96001 8.99207 8.18429 8.5724C8.40857 8.15273 8.73284 7.79488 9.12836 7.53053C9.52388 7.26618 9.97846 7.1035 10.4518 7.05689C10.9252 7.01027 11.4027 7.08117 11.8422 7.2633C12.2816 7.44542 12.6694 7.73316 12.9712 8.10103C13.2729 8.46889 13.4794 8.90553 13.5722 9.37227C13.665 9.83901 13.6413 10.3215 13.5033 10.7769C13.3653 11.2323 13.1171 11.6466 12.7808 11.9832C12.5122 12.2517 12.1932 12.4646 11.8421 12.6096C11.4911 12.7546 11.1149 12.8289 10.7352 12.8282ZM10.7352 8.20121C10.2909 8.20121 9.84539 8.37022 9.50753 8.70825C9.18008 9.03701 8.99958 9.47227 8.99958 9.93648C8.99958 10.4007 9.18008 10.836 9.50753 11.1647C9.83594 11.4764 10.273 11.6476 10.7257 11.6416C11.1784 11.6356 11.6108 11.4531 11.9309 11.1328C12.251 10.8126 12.4335 10.3799 12.4394 9.92702C12.4454 9.47413 12.2744 9.03682 11.9628 8.70825C11.8016 8.54708 11.6101 8.41934 11.3995 8.33233C11.1888 8.24532 10.9631 8.20076 10.7352 8.20121Z" fill="#AACAFE"/>
<path d="M10.7841 16.8525C10.6303 16.8525 10.4828 16.7914 10.374 16.6827C10.2653 16.5739 10.2042 16.4265 10.2042 16.2727V12.2895C10.2042 12.1357 10.2653 11.9883 10.374 11.8795C10.4828 11.7708 10.6303 11.7097 10.7841 11.7097C10.9379 11.7097 11.0854 11.7708 11.1942 11.8795C11.3029 11.9883 11.364 12.1357 11.364 12.2895V16.2727C11.364 16.4265 11.3029 16.5739 11.1942 16.6827C11.0854 16.7914 10.9379 16.8525 10.7841 16.8525ZM6.14473 13.9535C6.05457 13.9532 5.96568 13.9322 5.88493 13.8921L1.88694 11.8929C1.59717 11.7497 1.35343 11.528 1.18345 11.2531C1.01347 10.9782 0.924072 10.6611 0.92543 10.3379V2.49443C0.92543 1.88681 1.23395 1.33368 1.75008 1.01479C2.26737 0.698225 2.89949 0.666915 3.44345 0.93942L6.40454 2.41906C6.50074 2.46726 6.58164 2.54127 6.63817 2.63281C6.69471 2.72435 6.72465 2.82981 6.72465 2.9374V13.3737C6.72465 13.5275 6.66355 13.675 6.5548 13.7837C6.44604 13.8924 6.29854 13.9535 6.14473 13.9535ZM2.66636 1.91348C2.55813 1.91418 2.45219 1.94467 2.36016 2.00161C2.27553 2.05288 2.2057 2.12526 2.15751 2.21166C2.10932 2.29806 2.08442 2.39551 2.08527 2.49443V10.3379C2.08527 10.5594 2.20706 10.7577 2.40539 10.8563L5.56481 12.4356V3.29571L2.925 1.97609C2.8449 1.93522 2.75629 1.91377 2.66636 1.91348Z" fill="#AACAFE"/>
<path d="M6.15517 13.9601C6.07943 13.9602 6.0044 13.9453 5.9344 13.9161C5.86439 13.8869 5.80079 13.8441 5.74723 13.79C5.69367 13.736 5.65122 13.6718 5.62231 13.6012C5.59339 13.5305 5.57858 13.4548 5.57874 13.3784V2.90824C5.57874 2.66975 5.72169 2.45686 5.94073 2.36845L11.705 0.0417454C11.7925 0.00637641 11.8872 -0.00681967 11.9809 0.00331242C12.0746 0.0134445 12.1644 0.0465958 12.2424 0.0998643C12.3205 0.153133 12.3844 0.224894 12.4286 0.308867C12.4727 0.392839 12.4959 0.486462 12.4959 0.58154V7.95951C12.496 8.06179 12.4694 8.16228 12.4187 8.25087C12.3681 8.33946 12.2952 8.413 12.2074 8.46409C12.1196 8.51517 12.02 8.54199 11.9186 8.54184C11.8173 8.54169 11.7177 8.51458 11.6301 8.46324C11.3016 8.26974 10.919 8.19108 10.5417 8.23946C10.1644 8.28785 9.81349 8.46057 9.54342 8.73081C9.21716 9.06004 9.03731 9.49746 9.03731 9.96396C9.03731 10.4305 9.21716 10.8679 9.54342 11.1983C9.6368 11.2937 9.75554 11.3798 9.91349 11.4717C10.0078 11.5258 10.0851 11.6058 10.1364 11.7023C10.1877 11.7988 10.211 11.908 10.2035 12.0173C10.196 12.1265 10.1581 12.2315 10.0942 12.32C10.0302 12.4085 9.94282 12.4769 9.84201 12.5175L6.36844 13.9194C6.30047 13.9462 6.22815 13.96 6.15517 13.9601ZM6.7316 3.30145V12.5187L8.52775 11.7939C8.10956 11.2776 7.88216 10.6308 7.88445 9.96396C7.88405 9.53288 7.97893 9.10713 8.16217 8.71772C8.34541 8.32831 8.61241 7.98504 8.94372 7.7129C9.27503 7.44076 9.66231 7.2466 10.0774 7.14457C10.4924 7.04253 10.9248 7.03518 11.343 7.12306V1.44009L6.7316 3.30145Z" fill="#AACAFE"/>
<path d="M15.4148 13.2055C15.1499 13.2055 14.8849 13.144 14.6373 13.0199L12.3463 11.8713C12.2702 11.8327 12.2034 11.7777 12.1509 11.7103C12.0983 11.6429 12.0613 11.5646 12.0424 11.4812C12.0235 11.3977 12.0232 11.3111 12.0415 11.2275C12.0599 11.144 12.0964 11.0655 12.1485 10.9977C12.4073 10.6644 12.5363 10.2481 12.5113 9.82647C12.4864 9.40483 12.3093 9.00669 12.0131 8.70638C11.9051 8.60183 11.7837 8.5121 11.6521 8.43955C11.5645 8.38831 11.4919 8.31498 11.4413 8.22685C11.3908 8.13872 11.3641 8.03886 11.364 7.9372V0.57948C11.3641 0.480719 11.3894 0.383619 11.4374 0.29738C11.4854 0.211141 11.5545 0.138619 11.6383 0.0866836C11.7221 0.0347484 11.8177 0.00512029 11.9161 0.000606312C12.0145 -0.00390767 12.1124 0.0168419 12.2006 0.0608893L16.1889 2.061C16.7825 2.35684 17.1493 2.95316 17.1493 3.61677V11.4641C17.1504 11.7609 17.0753 12.053 16.9313 12.3123C16.7872 12.5716 16.5789 12.7893 16.3266 12.9444C16.0454 13.1185 15.7307 13.2055 15.4148 13.2055ZM13.4178 11.1126L15.1545 11.9827C15.2423 12.0279 15.3404 12.0493 15.439 12.0448C15.5377 12.0403 15.6334 12.0101 15.7168 11.9571C15.8016 11.9062 15.8716 11.8338 15.92 11.7474C15.9683 11.6609 15.9932 11.5632 15.9922 11.4641V3.61677C15.9929 3.50899 15.9633 3.4032 15.9068 3.31149C15.8503 3.21979 15.7693 3.14586 15.6729 3.09818L12.5211 1.51805V7.62164C12.6356 7.70517 12.7374 7.79102 12.8312 7.88615C13.6885 8.74583 13.8968 10.0382 13.4178 11.1126Z" fill="#AACAFE"/>
</svg>
