<svg width="24" height="25" viewBox="0 0 24 25" fill="none" xmlns="http://www.w3.org/2000/svg">
<g clip-path="url(#clip0_3286_6845)">
<g clip-path="url(#clip1_3286_6845)">
<path d="M24 13.769L22.044 11.5454L23.2315 9.14149L20.842 7.96283L21.029 5.05971L18.0649 4.86887L17.1683 2.21935L14.6047 3.08789L12.7687 1.00024L10.603 2.90489L7.98509 1.61176L6.73399 4.14373L4.05947 3.97262L3.88309 6.72044L1.06246 7.6754L2.00822 10.4662L0 12.231L1.75462 14.2262L0.454865 16.859L3.14876 18.189L2.97201 20.9416L5.61368 21.1114L6.51863 23.7807L9.32394 22.831L11.2313 24.9998L13.2838 23.1941L15.7017 24.3882L16.9612 21.8369L19.9424 22.0291L20.1252 19.1716L22.6244 18.325L21.751 15.7469L24 13.769ZM19.4035 18.6189L19.2364 21.2264L16.5069 21.0518L15.3585 23.3776L13.1647 22.2941L11.3004 23.9339L9.55891 21.9529L6.99139 22.8228L6.16587 20.3894L3.77424 20.2364L3.93432 17.7342L1.46633 16.5156L2.65602 14.1077L1.06638 12.3008L2.8851 10.7015L2.02048 8.14841L4.60467 7.27288L4.76438 4.77338L7.18935 4.92868L8.32731 2.62261L10.7225 3.80617L12.7009 2.06601L14.3701 3.96453L16.6959 3.17664L17.5136 5.58971L20.2272 5.7634L20.0575 8.41562L22.2214 9.48469L21.1442 11.6638L22.9348 13.7006L20.874 15.5127L21.6672 17.8516L19.4035 18.6189Z" fill="white" fill-opacity="0.56" stroke="white" stroke-opacity="0.56" stroke-width="0.5"/>
<path d="M14.7953 12.1292C13.6701 12.1292 12.7406 13.0841 12.7406 14.7993C12.7529 16.5004 13.6697 17.351 14.73 17.351C15.8169 17.351 16.7588 16.4613 16.7588 14.6673C16.7593 13.0451 15.9872 12.1292 14.7953 12.1292ZM14.7563 16.6576C14.0496 16.6576 13.6308 15.8333 13.6439 14.7477C13.6439 13.6738 14.0365 12.8233 14.7563 12.8233C15.5543 12.8233 15.8552 13.687 15.8552 14.7218C15.8552 15.846 15.5157 16.6576 14.7563 16.6576Z" fill="white" fill-opacity="0.56"/>
<path d="M11.2225 11.1479C11.2225 9.52524 10.4373 8.60791 9.24624 8.60791C8.12066 8.60791 7.19156 9.56422 7.19156 11.2654C7.20467 12.9793 8.12066 13.8299 9.18091 13.8299C10.2801 13.8303 11.2225 12.9403 11.2225 11.1479ZM8.10742 11.2264C8.10742 10.1526 8.48776 9.30204 9.20677 9.30204C10.0052 9.30204 10.3061 10.1658 10.3061 11.2006C10.3061 12.3253 9.96573 13.1368 9.20677 13.1368C8.48776 13.1363 8.08119 12.3122 8.10742 11.2264Z" fill="white" fill-opacity="0.56"/>
<path d="M14.1018 8.60791L9.10196 17.4036H9.83445L14.8349 8.60791H14.1018Z" fill="white" fill-opacity="0.56"/>
</g>
</g>
<defs>
<clipPath id="clip0_3286_6845">
<rect width="24" height="24" fill="white" transform="translate(0 0.86792)"/>
</clipPath>
<clipPath id="clip1_3286_6845">
<rect width="24" height="24" fill="white" transform="translate(0 1)"/>
</clipPath>
</defs>
</svg>
