<svg width="18" height="12" viewBox="0 0 18 12" fill="none" xmlns="http://www.w3.org/2000/svg">
<path d="M1 5.13698C1 5.13698 4.58061 1 9 1C13.4194 1 17 5.13698 17 5.13698M15.9091 7.00551C15.9091 7.00551 12.8133 11 8.99757 11C5.18182 11 2.08364 7.00551 2.08364 7.00551C2.08364 7.00551 5.17939 3.00874 8.99757 3.00874C12.8158 3.00874 15.9091 7.00551 15.9091 7.00551ZM11.3103 7.00322C11.3103 8.21416 10.2749 9.19582 8.99757 9.19582C7.72029 9.19582 6.68485 8.21416 6.68485 7.00322C6.68485 5.79228 7.72029 4.81062 8.99757 4.81062C10.2749 4.81062 11.3103 5.79228 11.3103 7.00322Z" stroke="#285199" stroke-width="1.14925" stroke-linecap="round" stroke-linejoin="round"/>
</svg>
