<svg width="17" height="22" viewBox="0 0 17 22" fill="none" xmlns="http://www.w3.org/2000/svg">
<path d="M6.95455 0.575439C4.40455 0.575439 2.31818 2.60044 2.31818 5.07544V8.07544C1.00455 8.07544 0 9.05044 0 10.3254V14.8254C0 16.6254 0.695454 18.3504 2.00909 19.6254C3.32273 20.9004 5.1 21.5754 6.95455 21.5754C10.2773 21.5754 13.0591 19.3254 13.7545 16.3254H13.9091C14.7591 16.3254 15.5318 16.0254 16.0727 15.4254C16.6909 14.8254 17 14.0754 17 13.3254C17 12.5754 16.6909 11.7504 16.0727 11.2254C15.4545 10.7004 14.7591 10.3254 13.9091 10.3254C13.9091 9.05044 12.9045 8.07544 11.5909 8.07544V5.07544C11.5909 2.60044 9.50455 0.575439 6.95455 0.575439ZM14.9909 12.2754C15.3 12.5754 15.4545 12.9504 15.4545 13.3254C15.4545 13.7004 15.3 14.0754 14.9909 14.3754C14.6045 14.7504 13.9864 14.9004 13.3682 14.7504C12.75 14.5254 12.3636 14.0004 12.3636 13.3254C12.3636 12.9504 12.5182 12.5754 12.8273 12.2754C12.9818 12.1254 13.2136 11.9754 13.4455 11.9004C13.6 11.8254 13.7545 11.8254 13.9091 11.8254C14.2955 11.8254 14.6818 11.9754 14.9909 12.2754ZM12.3636 10.3254V10.7754C12.1318 10.9254 11.9 11.0754 11.7455 11.2254C11.3591 11.6004 11.05 12.0504 10.9727 12.5754H3.86364C3.4 12.5754 3.09091 12.8754 3.09091 13.3254V14.8254C3.09091 15.2754 3.4 15.5754 3.86364 15.5754C4.32727 15.5754 4.63636 15.2754 4.63636 14.8254V14.0754H6.18182V14.8254C6.18182 15.2754 6.49091 15.5754 6.95455 15.5754C7.41818 15.5754 7.72727 15.2754 7.72727 14.8254V14.0754H10.8955C11.1273 14.8254 11.5909 15.4254 12.2091 15.8754C11.7455 18.2754 9.58182 20.0754 6.95455 20.0754C5.48636 20.0754 4.17273 19.5504 3.09091 18.5754C2.08636 17.6004 1.54545 16.2504 1.54545 14.8254V10.3254C1.54545 9.87544 1.85455 9.57544 2.31818 9.57544H11.5909C12.0545 9.57544 12.3636 9.87544 12.3636 10.3254ZM3.86364 8.07544V5.07544C3.86364 3.42544 5.25455 2.07544 6.95455 2.07544C8.65454 2.07544 10.0455 3.42544 10.0455 5.07544V8.07544H3.86364Z" fill="white" fill-opacity="0.56"/>
</svg>
