<svg width="24" height="24" viewBox="0 0 24 24" fill="none" xmlns="http://www.w3.org/2000/svg">
<path d="M11 11C9.7625 11 8.70313 10.5594 7.82188 9.67813C6.94063 8.79688 6.5 7.7375 6.5 6.5C6.5 5.2625 6.94063 4.20312 7.82188 3.32188C8.70313 2.44063 9.7625 2 11 2C12.2375 2 13.2969 2.44063 14.1781 3.32188C15.0594 4.20312 15.5 5.2625 15.5 6.5C15.5 7.7375 15.0594 8.79688 14.1781 9.67813C13.2969 10.5594 12.2375 11 11 11ZM2 20V16.85C2 16.2125 2.16406 15.6266 2.49219 15.0922C2.82031 14.5578 3.25625 14.15 3.8 13.8688C4.9625 13.2875 6.14375 12.8516 7.34375 12.5609C8.54375 12.2703 9.7625 12.125 11 12.125C12.2375 12.125 13.4563 12.2703 14.6562 12.5609C15.8562 12.8516 17.0375 13.2875 18.2 13.8688C18.7438 14.15 19.1797 14.5578 19.5078 15.0922C19.8359 15.6266 20 16.2125 20 16.85V20H2ZM4.25 17.75H17.75V16.85C17.75 16.6438 17.6984 16.4563 17.5953 16.2875C17.4922 16.1187 17.3562 15.9875 17.1875 15.8938C16.175 15.3875 15.1531 15.0078 14.1219 14.7547C13.0906 14.5016 12.05 14.375 11 14.375C9.95 14.375 8.90937 14.5016 7.87812 14.7547C6.84687 15.0078 5.825 15.3875 4.8125 15.8938C4.64375 15.9875 4.50781 16.1187 4.40469 16.2875C4.30156 16.4563 4.25 16.6438 4.25 16.85V17.75ZM11 8.75C11.6187 8.75 12.1484 8.52969 12.5891 8.08906C13.0297 7.64844 13.25 7.11875 13.25 6.5C13.25 5.88125 13.0297 5.35156 12.5891 4.91094C12.1484 4.47031 11.6187 4.25 11 4.25C10.3813 4.25 9.85156 4.47031 9.41094 4.91094C8.97031 5.35156 8.75 5.88125 8.75 6.5C8.75 7.11875 8.97031 7.64844 9.41094 8.08906C9.85156 8.52969 10.3813 8.75 11 8.75Z" fill="white" fill-opacity="0.56"/>
</svg>
