<svg width="20" height="18" viewBox="0 0 20 18" fill="none" xmlns="http://www.w3.org/2000/svg">
<path d="M15.1998 9.3207H0.755458C0.555098 9.3207 0.362945 9.24519 0.221269 9.11078C0.0795928 8.97638 0 8.79408 0 8.604C0 8.41392 0.0795928 8.23163 0.221269 8.09722C0.362945 7.96282 0.555098 7.88731 0.755458 7.88731H15.1998C15.4002 7.88731 15.5923 7.96282 15.734 8.09722C15.8757 8.23163 15.9553 8.41392 15.9553 8.604C15.9553 8.79408 15.8757 8.97638 15.734 9.11078C15.5923 9.24519 15.4002 9.3207 15.1998 9.3207ZM19.243 7.88731H17.7336C17.5333 7.88731 17.3411 7.96282 17.1994 8.09722C17.0578 8.23163 16.9782 8.41392 16.9782 8.604C16.9782 8.79408 17.0578 8.97638 17.1994 9.11078C17.3411 9.24519 17.5333 9.3207 17.7336 9.3207H19.2445C19.4449 9.3207 19.6371 9.24519 19.7787 9.11078C19.9204 8.97638 20 8.79408 20 8.604C20 8.41392 19.9204 8.23163 19.7787 8.09722C19.6371 7.96282 19.4434 7.88731 19.243 7.88731ZM18.2035 10.7541C18.0032 10.7541 17.811 10.8296 17.6693 10.964C17.5277 11.0984 17.4481 11.2807 17.4481 11.4708V13.5205C17.4473 14.0905 17.2082 14.637 16.7834 15.04C16.3585 15.4431 15.7825 15.6699 15.1817 15.6706H4.8168C4.21597 15.6699 3.63997 15.4431 3.21512 15.04C2.79026 14.637 2.55123 14.0905 2.55043 13.5205V11.4708C2.55043 11.2807 2.47083 11.0984 2.32916 10.964C2.18748 10.8296 1.99533 10.7541 1.79497 10.7541C1.59461 10.7541 1.40245 10.8296 1.26078 10.964C1.1191 11.0984 1.03951 11.2807 1.03951 11.4708V13.5205C1.04071 14.4706 1.43906 15.3814 2.14718 16.0532C2.8553 16.725 3.81537 17.1029 4.8168 17.104H15.1817C16.1831 17.1029 17.1432 16.725 17.8513 16.0532C18.5594 15.3814 18.9578 14.4706 18.959 13.5205V11.4708C18.959 11.2807 18.8794 11.0984 18.7377 10.964C18.596 10.8296 18.4039 10.7541 18.2035 10.7541ZM1.79497 6.45392C1.99533 6.45392 2.18748 6.37841 2.32916 6.244C2.47083 6.1096 2.55043 5.9273 2.55043 5.73722V3.68748C2.55123 3.11747 2.79026 2.57103 3.21512 2.16798C3.63997 1.76492 4.21597 1.53815 4.8168 1.53739H15.1817C15.7825 1.53815 16.3585 1.76492 16.7834 2.16798C17.2082 2.57103 17.4473 3.11747 17.4481 3.68748V5.73722C17.4481 5.9273 17.5277 6.1096 17.6693 6.244C17.811 6.37841 18.0032 6.45392 18.2035 6.45392C18.4039 6.45392 18.596 6.37841 18.7377 6.244C18.8794 6.1096 18.959 5.9273 18.959 5.73722V3.68748C18.9578 2.73743 18.5594 1.82662 17.8513 1.15484C17.1432 0.483051 16.1831 0.105142 15.1817 0.104004H4.8168C3.81537 0.105142 2.8553 0.483051 2.14718 1.15484C1.43906 1.82662 1.04071 2.73743 1.03951 3.68748V5.73722C1.03951 5.9273 1.1191 6.1096 1.26078 6.244C1.40245 6.37841 1.59461 6.45392 1.79497 6.45392Z" fill="white" fill-opacity="0.56"/>
</svg>
